<svg width="88" height="46" viewBox="0 0 88 46" fill="none" xmlns="http://www.w3.org/2000/svg">
<path d="M3.93631 13.2277H6.95194V15.2932H1.23739V5.5853H3.93631V13.2277ZM14.1428 13.7096H10.7003L10.177 15.2932H7.34041L10.8793 5.5853H13.9913L17.5164 15.2932H14.666L14.1428 13.7096ZM13.4681 11.6441L12.4215 8.50454L11.3888 11.6441H13.4681ZM24.5926 10.3084C25.1618 10.4369 25.6116 10.7215 25.9421 11.1622C26.2817 11.5936 26.4516 12.0893 26.4516 12.6493C26.4516 13.4755 26.167 14.1227 25.5978 14.5909C25.0287 15.0591 24.23 15.2932 23.2018 15.2932H18.3961V5.5853H23.0504C24.0418 5.5853 24.8175 5.80562 25.3775 6.24626C25.9467 6.6869 26.2312 7.30655 26.2312 8.10521C26.2312 8.67437 26.0798 9.15173 25.7768 9.53729C25.4831 9.91367 25.0883 10.1707 24.5926 10.3084ZM21.095 9.4409H22.4583C23.1376 9.4409 23.4772 9.16091 23.4772 8.60093C23.4772 8.02259 23.1376 7.73342 22.4583 7.73342H21.095V9.4409ZM22.6648 13.1175C23.3441 13.1175 23.6838 12.8329 23.6838 12.2638C23.6838 11.97 23.592 11.7451 23.4084 11.589C23.234 11.433 22.9815 11.3549 22.651 11.3549H21.095V13.1175H22.6648Z" fill="#E8C952"/>
<path d="M5.06275 30.5283C4.35715 30.5283 3.72211 30.4074 3.15763 30.1654C2.59315 29.9134 2.14963 29.5606 1.82707 29.107C1.50451 28.6534 1.34323 28.1242 1.34323 27.5194H3.18787C3.22819 27.973 3.40459 28.346 3.71707 28.6383C4.03963 28.9306 4.48819 29.0768 5.06275 29.0768C5.65747 29.0768 6.12115 28.9357 6.45379 28.6534C6.78643 28.3611 6.95275 27.9882 6.95275 27.5346C6.95275 27.1818 6.84691 26.8945 6.63523 26.6727C6.43363 26.451 6.17659 26.2796 5.86411 26.1586C5.56171 26.0377 5.13835 25.9066 4.59403 25.7655C3.90859 25.5841 3.34915 25.4026 2.91571 25.2212C2.49235 25.0297 2.12947 24.7374 1.82707 24.3442C1.52467 23.9511 1.37347 23.427 1.37347 22.7718C1.37347 22.167 1.52467 21.6378 1.82707 21.1842C2.12947 20.7306 2.55283 20.3828 3.09715 20.1409C3.64147 19.899 4.27147 19.778 4.98715 19.778C6.00523 19.778 6.83683 20.035 7.48195 20.5491C8.13715 21.0531 8.50003 21.7486 8.57059 22.6357H6.66547C6.63523 22.2526 6.45379 21.925 6.12115 21.6529C5.78851 21.3807 5.35003 21.2446 4.80571 21.2446C4.31179 21.2446 3.90859 21.3706 3.59611 21.6226C3.28363 21.8746 3.12739 22.2375 3.12739 22.7113C3.12739 23.0338 3.22315 23.301 3.41467 23.5126C3.61627 23.7142 3.86827 23.8755 4.17067 23.9965C4.47307 24.1174 4.88635 24.2485 5.41051 24.3896C6.10603 24.5811 6.67051 24.7726 7.10395 24.9642C7.54747 25.1557 7.92043 25.453 8.22283 25.8562C8.53531 26.2494 8.69155 26.7786 8.69155 27.4438C8.69155 27.9781 8.54539 28.4821 8.25307 28.9558C7.97083 29.4296 7.55251 29.8126 6.99811 30.105C6.45379 30.3872 5.80867 30.5283 5.06275 30.5283ZM20.8105 21.9553C21.4657 21.9553 22.0503 22.0914 22.5644 22.3635C23.0885 22.6357 23.4968 23.0389 23.7891 23.5731C24.0915 24.1074 24.2427 24.7525 24.2427 25.5085V30.4225H22.5341V25.7655C22.5341 25.0196 22.3477 24.4501 21.9747 24.057C21.6017 23.6538 21.0927 23.4522 20.4476 23.4522C19.8025 23.4522 19.2884 23.6538 18.9053 24.057C18.5324 24.4501 18.3459 25.0196 18.3459 25.7655V30.4225H16.6373V25.7655C16.6373 25.0196 16.4509 24.4501 16.0779 24.057C15.7049 23.6538 15.1959 23.4522 14.5508 23.4522C13.9057 23.4522 13.3916 23.6538 13.0085 24.057C12.6356 24.4501 12.4491 25.0196 12.4491 25.7655V30.4225H10.7254V22.0914H12.4491V23.0439C12.7313 22.7012 13.0892 22.4341 13.5226 22.2426C13.9561 22.051 14.4197 21.9553 14.9137 21.9553C15.5789 21.9553 16.1737 22.0964 16.6978 22.3786C17.222 22.6609 17.6252 23.0691 17.9074 23.6034C18.1594 23.0994 18.5525 22.7012 19.0868 22.4089C19.621 22.1065 20.1956 21.9553 20.8105 21.9553ZM25.8615 26.2191C25.8615 25.3825 26.0329 24.6416 26.3756 23.9965C26.7284 23.3514 27.2021 22.8524 27.7969 22.4996C28.4017 22.1367 29.0669 21.9553 29.7927 21.9553C30.4479 21.9553 31.0174 22.0863 31.5013 22.3484C31.9952 22.6004 32.3883 22.9179 32.6806 23.301V22.0914H34.4194V30.4225H32.6806V29.1826C32.3883 29.5758 31.9901 29.9034 31.4861 30.1654C30.9821 30.4275 30.4076 30.5586 29.7625 30.5586C29.0468 30.5586 28.3916 30.3771 27.7969 30.0142C27.2021 29.6413 26.7284 29.1272 26.3756 28.472C26.0329 27.8067 25.8615 27.0558 25.8615 26.2191ZM32.6806 26.2494C32.6806 25.6748 32.5597 25.1758 32.3177 24.7525C32.0859 24.3291 31.7785 24.0066 31.3954 23.7848C31.0124 23.563 30.5991 23.4522 30.1556 23.4522C29.7121 23.4522 29.2988 23.563 28.9157 23.7848C28.5327 23.9965 28.2202 24.314 27.9783 24.7374C27.7465 25.1506 27.6305 25.6446 27.6305 26.2191C27.6305 26.7937 27.7465 27.2977 27.9783 27.7311C28.2202 28.1646 28.5327 28.4972 28.9157 28.729C29.3089 28.9508 29.7221 29.0617 30.1556 29.0617C30.5991 29.0617 31.0124 28.9508 31.3954 28.729C31.7785 28.5073 32.0859 28.1847 32.3177 27.7614C32.5597 27.3279 32.6806 26.8239 32.6806 26.2494ZM38.4071 23.301C38.6591 22.8776 38.9917 22.55 39.405 22.3182C39.8284 22.0762 40.3273 21.9553 40.9019 21.9553V23.7394H40.4634C39.788 23.7394 39.274 23.9108 38.9212 24.2535C38.5784 24.5962 38.4071 25.191 38.4071 26.0377V30.4225H36.6834V22.0914H38.4071V23.301ZM44.4972 23.4975V28.1091C44.4972 28.4216 44.5678 28.6484 44.7089 28.7895C44.8601 28.9206 45.1121 28.9861 45.4649 28.9861H46.5233V30.4225H45.1625C44.3864 30.4225 43.7916 30.241 43.3784 29.8782C42.9651 29.5153 42.7584 28.9256 42.7584 28.1091V23.4975H41.7756V22.0914H42.7584V20.0199H44.4972V22.0914H46.5233V23.4975H44.4972Z" fill="#450087"/>
</svg>
